<svg id="Cart" xmlns="http://www.w3.org/2000/svg" width="36" height="36" viewBox="0 0 36 36">
  <rect id="Container" width="36" height="36" fill="none"/>
  <path id="Icon_Regular_Shopping_Cart" data-name="Icon / Regular / Shopping / Cart" d="M23.14,28.622a3.75,3.75,0,1,1,3.75,3.75A3.754,3.754,0,0,1,23.14,28.622Zm1.875,0a1.875,1.875,0,1,0,1.875-1.875A1.877,1.877,0,0,0,25.015,28.622Zm-14.979,0a3.75,3.75,0,1,1,3.75,3.75A3.754,3.754,0,0,1,10.036,28.622Zm1.875,0a1.875,1.875,0,1,0,1.875-1.875A1.877,1.877,0,0,0,11.911,28.622Zm-1.238-6.74a1.453,1.453,0,0,1-1.35-.993l-.02-.07L4.356,1.875,0,1.878V0L4.712,0a1.454,1.454,0,0,1,1.35.994l.02.07,1.2,4.609H33.548a1.209,1.209,0,0,1,1.2,1.468l-.016.068L31.207,20.817a1.452,1.452,0,0,1-1.3,1.063l-.073,0Zm.355-1.875H29.479l3.227-12.46H7.775Z" transform="translate(0.416 1.875)"/>
</svg>
